<svg id="Слой_1" data-name="Слой 1" xmlns="http://www.w3.org/2000/svg" viewBox="0 0 1000 522"><defs><style>.cls-1{font-size:128.1px;font-family:TitilliumWeb-Bold, Titillium Web;font-weight:700;}.cls-1,.cls-6,.cls-7,.cls-8,.cls-9{stroke:#fff;stroke-miterlimit:10;stroke-width:5px;}.cls-2{letter-spacing:-0.03em;}.cls-3{letter-spacing:-0.01em;}.cls-4{letter-spacing:-0.01em;}.cls-5{letter-spacing:0em;}.cls-6{fill:#28348a;}.cls-6,.cls-7,.cls-8,.cls-9{fill-rule:evenodd;}.cls-7{fill:#13a438;}.cls-8{fill:#e2051b;}.cls-9{fill:#ee7d00;}</style></defs><text class="cls-1" transform="translate(55.98 482.16)">N<tspan class="cls-2" x="88.77" y="0">A</tspan><tspan class="cls-3" x="162.43" y="0">V</tspan><tspan x="238.39" y="0">OI</tspan><tspan class="cls-4" x="358.54" y="0">T</tspan><tspan class="cls-5" x="425.15" y="0">OURISM</tspan></text><path class="cls-6" d="M28.16,224.83S46,213.26,67.49,221.24c0,0-20,93.06,27.3,92.38,23.23-.34,32.71-22,34.55-43.51,1.65-19.3-2.25-38.38-3-41.51,0,0,13.92-3.82,28.36,7.31,0,0-3.31,96.52-60.21,96-31.11-.26-51.28-25.72-60.27-53-6.92-21-7.36-43.14-6.07-54.11Zm544.11-59.56S632.21,138.41,682,142.64s96.76,23.88,118.4,28.35,79.84,2.49,91.53.75c0,0-32.84,19.15-74.37,18.65S733.44,167.76,693.89,162s-97.25.5-121.62,3.23ZM866.69,322.81s-1,3.1-7.15,2.76-6.8-5.72-6.8-8.89-.74-27.39,3.27-45,8.92-19.18,11-19.29,11.48,1.22,23.75,18.4,23.53,26.76,26.54,26.87,13.71-28.77,15-43.49.89-18.95,5.24-19.51,7.25,5.91,5.8,29.32-3.91,60.44-27.1,61.44-42.59-35.23-42.59-35.23-3.46-4.24-4.46,4.12-2.59,28.5-2.59,28.5ZM800.91,300s-12.14,4.38-8.44,14.26,14.57,3.82,16.35,3c2-.94,11.07-2,7.69-13.43-2.44-8.29-14.08-4.51-15.6-3.82Zm-43,18.18c-.31-5.2,8.74-27.76,17.37-45.66s18.28-27.34,22-28.27,15,2,20.53,9.2,13.8,25.69,16.6,35.56,7,25.55,7,25.55,3.05,4.22-2.09,5.27c-6,1.22-6.41-.73-6.41-.73-10-27.63-17.9-40.72-22.22-47s-6.25-4.06-6.25-4.06c-8.24,13.32-29.87,57.33-29.87,57.33-14.09.45-16.62-7.22-16.62-7.22Zm-78.57-50.33A326.25,326.25,0,0,0,720,268c0,8.26.15,44.38-.06,49.64-.25,5.94.6,8,9.4,7.47s9.11-4.91,7.16-13.61-6-28.66-5.73-36.54c.16-4,.42-6.46,1-8,20.59-2.29,30.63-6.26,30.63-6.26,3.73-5.17-5.29-16.95-5.29-16.95-26.94,6.13-70.47,3.84-70.47,3.84a20.35,20.35,0,0,0-7.31,20.27ZM604.9,314.51A85.43,85.43,0,0,0,644.29,322c22.46-1.15,35.12-18.06,35.23-22.18s-14.83-9.11-41.08-12.09-33.92-11.57-33.81-22.11,13.87-23,30.49-28.31a58.15,58.15,0,0,1,30.41-1.42c6.34,7.85-.13,19-.13,19-1.35.37-36.75-2.26-38,6.08-1.35,9.18,29.76,9.41,48.86,17.8s21.17,17.8,15.75,35.1S661.44,350,633.05,350s-41.6-15.88-41.6-15.88c1.8-15.58,13.45-19.57,13.45-19.57Zm-41.49-68.93s-1.15.57-1.24,7.56-3,43.59-4,67.13c0,0,6.16,7.37,25.94,3.54a399.81,399.81,0,0,0-2.39-43.75c-2.54-20.93-4.35-28.8-8.53-32.28s-8.6-3.84-9.77-2.2Zm-99.2,0s.49,48.77-1,77.5c0,0,1.68,2.19,6.82,2.3s7.32-2.18,7.32-2.18-.81-12.06-1-23.34c1-2.59,3-1.24,3-1.24a220.41,220.41,0,0,0,23.53,16.9c13.93,8.73,35.54,13.93,40.92,4.5s-2-9.18-2-9.18c-26.46-.44-42.51-15.25-47.18-19.13s-1.94-5.38-1.94-5.38c16.75-11.2,34.72-29.36,38.16-33s2.5-4.81-1.63-7.25-6.15.22-6.15.22c-8.56,11-33.78,25.85-39.26,28.18-3.35,1.41-4.59.28-5.06-.7,2.34-11,5.69-22.56,5.69-22.56s-.47-4.37-8.19-6.79-11.87.19-12,1.13Zm-54.35,39.56s.09,4.88,7.29,4.88,21-3.38,22.8-5.58.54-12.21-2.86-14.06-13,2-16,3.22-13.6,4.75-11.21,11.54Zm36.77,15.45s5.89,18.95,0,23.78c0,0-24.13,3.88-39.44-5.42s-23.78-27.21-23.78-43.53,9.66-41.94,42.5-48.18c0,0,4.28,1.23,7.85,11.25,2.51,7,4.13,11.38,3.81,16.94,0,0-43.69,6.53-36.87,33.51,6.68,26.41,38.5,18.12,45.93,11.65ZM282.43,249.4l7.88,71.25s3.53,5.43,30,4.48,58.84-9.11,57.42-26.2c-1.11-13.27-38-22.26-38-22.26S352,266.25,351,258.62s-39.05-13.8-64.4-14.25c0,0-4.64-.44-4.18,5Zm14.14,8.29c15.12-3.62,34.76.3,35.16,4.69s-15.38,8.83-21.52,14.44c-5.14,4.69-4.78,7.67.9,9.16s42.34,11.16,42.73,19.23-37.35,5.58-43.83,4.18-6-4.48-6-4.48l-7.47-47.22ZM179,269.17c22.18-3.5,52.15-2.45,52.15-2.45-7.26,11-60.27,33.51-70.61,42.16s-3,12.23-3,12.23,16.63,2.55,41.41,3.87,47.83-.86,66-5.18,5.72-31.66,5.72-31.66c-22.9,19.56-63.52,17.72-69.25,17.18s.11-4.75,8.21-9.83,26.79-15.88,40.73-25.71,5-15,5-15c-29.71-15.78-58.21-9.29-58.21-9.29C179.63,256.19,179,269.17,179,269.17Z"/><path class="cls-7" d="M75.93,173s88,.5,128.77-20.28,71.73-38.27,71.73-38.27,34.11,31.25,71.81,49.71S458.36,200,539.81,192.81s154.78-18.7,191.9-12.13,63,21.14,82.75,35.66c0,0-60.13-29.63-97.9-27s-146.21,25.12-232.49,22.81-127.62-21.4-160.62-39.74-50.55-35.63-50.55-35.63-33.27,17.29-65,27.51S148.66,183.37,75.93,173Z"/><path class="cls-8" d="M310.29,112.08s35.55-49.75,90.62-18.29c52.89,30.23,29.26,79.9,29.26,79.9s8.1-30.39-41.76-59.49C340.33,86.13,310.29,112.08,310.29,112.08Z"/><path class="cls-9" d="M757.41,145.39S781.72,57.74,833,34.22c0,0,49.43,14.7,78,131.48h42.42l19,155.9V163.37s1.23-11.22-14.06-11.22H923S909.84,44.33,833,17c0,0-50.57,19.28-76.29,98.82C754.26,123.46,753.62,139.91,757.41,145.39Z"/></svg>